<svg xmlns="http://www.w3.org/2000/svg" xml:space="preserve" width="1500" height="560" data-id="lg_Ihss9hoMVubxAgPDyB" data-version="1" viewBox="0 0 1500 560"><g data-padding="20"><g transform="translate(10 13.302)scale(.9525)"><path fill="#1c1c1c" d="m772.4 1.232-140.672 39.2v9.184c0 9.912-29.736 27.776-56.448 37.52l-8.848 3.304v213.864c0 70.952 35.448 137.368 102.48 191.968a425.6 425.6 0 0 0 101.976 61.376L776.88 560l5.992-2.352c2.072-.84 51.744-20.552 101.92-61.376 67.088-54.6 102.592-120.96 102.592-191.968V90.384l-8.904-3.136c-26.712-9.8-56.448-27.664-56.448-37.576v-9.24L776.88 0Z"/><path fill="none" stroke="#fff" stroke-width="2" d="m120.997-22.252-25.12 7v1.64c0 1.77-5.31 4.96-10.08 6.7l-1.58.59v38.19c0 12.67 6.33 24.53 18.3 34.28a76 76 0 0 0 18.21 10.96l1.07.42 1.07-.42c.37-.15 9.24-3.67 18.2-10.96 11.98-9.75 18.32-21.6 18.32-34.28v-38.2l-1.59-.56c-4.77-1.75-10.08-4.94-10.08-6.71v-1.65l-25.92-7.22Z" paint-order="stroke" transform="matrix(5.25 0 0 5.34 137.347 133.33)"/><rect width="66.38" height="111.87" x="343.746" y="-175.935" fill="none" rx="0" ry="0" transform="translate(400.51 289.31)"/><path fill="#fff" d="M787.486 199.9h-21.18l-20.99-71.97h17.18l10.49 41.98 3.76 16.73h.35l3.66-16.73 10.55-41.98h17.17Z"/><rect width="86.974" height="22.6" x="333.449" y="-131.3" fill="none" rx="0" ry="0" transform="translate(400.49 182.74)"/><path fill="#fff" d="M740.036 68.67q-1.66 0-2.83-.66t-1.79-1.91q-.62-1.26-.62-3.04 0-1.84.66-3.1.66-1.27 1.86-1.92t2.81-.65q1.56 0 2.63.59 1.06.59 1.61 1.74t.55 2.83q0 .21-.01.49-.02.27-.04.62h-7.02q.11 1.36.66 1.99.55.62 1.54.62.82 0 1.25-.36.42-.36.5-.95h2.98q-.09 1.13-.68 1.97-.6.83-1.63 1.29-1.03.45-2.43.45m-.92-6.76h2.81q-.04-1.05-.5-1.57-.47-.52-1.43-.52-1.13 0-1.65.81-.52.8-.53 2.28.08-.57.39-.78.31-.22.91-.22m11.83 6.78q-1.41 0-2.42-.41-1.02-.41-1.58-1.24-.56-.84-.62-2.13h3.03q.09.8.52 1.18.42.38 1.14.38.36 0 .69-.08.33-.09.54-.3.21-.22.21-.6 0-.31-.15-.5-.16-.2-.45-.33-.3-.14-.72-.25-.42-.12-.95-.28-.94-.28-1.75-.68-.82-.4-1.32-1.07t-.5-1.76q0-1.63 1.2-2.42 1.19-.79 3.13-.79 1.14 0 2.05.31t1.51 1.1q.59.79.76 2.23l-3.01-.02q-.09-.64-.31-.95-.22-.32-.5-.42-.28-.11-.58-.11-.34 0-.61.11-.28.11-.44.32t-.16.53q0 .38.24.65t.73.48q.49.2 1.25.41.5.13 1.13.32.62.19 1.2.53.57.34.95.92.37.58.37 1.5 0 1.6-1.23 2.49-1.23.88-3.35.88m9.84-.04q-1.35 0-2.1-.68-.75-.69-.76-2.13l-.03-4.88q0-.38.22-.62.21-.24.6-.31l-.82-1.99v-.33l.57-3.23h2.53v10.4q0 .7.18.97.17.27.67.27t.84-.02q.33-.02.63-.07v2.45q-.36.13-1.07.15-.72.02-1.46.02m2.46-8.62h-6.51v-2.42h6.51Zm3.26 8.64q-.72 0-1.23-.52-.51-.53-.51-1.36 0-.82.51-1.34t1.23-.52 1.23.52.51 1.34q0 .83-.51 1.36-.51.52-1.23.52m16.12-.15h-10.14q.66-.83 1.27-1.61l1.19-1.52 1.11-1.44q.53-.7 1.04-1.36.95-1.24 1.53-2 .58-.77.85-1.33.27-.57.27-1.18 0-.71-.4-1.23-.41-.53-1.47-.52-.66 0-1.15.31t-.69.96q-.2.64 0 1.64h-2.88q-.26-1.97.3-3.19.55-1.23 1.72-1.8 1.16-.57 2.73-.57 1.58 0 2.64.51t1.59 1.42q.53.9.53 2.09 0 1.15-.37 2.09-.37.93-.91 1.71-.55.77-1.07 1.47-.42.55-.84 1.11l-.84 1.1-.84 1.1q.33-.34.75-.44.42-.11 1.17-.11h2.91Zm7.19.21q-1.6 0-2.81-.77-1.22-.78-1.9-2.45-.68-1.68-.68-4.36 0-2.6.68-4.25t1.9-2.43q1.21-.79 2.81-.79 1.61 0 2.82.79 1.2.78 1.88 2.43.67 1.65.67 4.25 0 2.68-.67 4.36-.68 1.67-1.88 2.45-1.21.77-2.82.77m0-2.87q.68 0 1.17-.43.48-.44.74-1.47t.26-2.79q0-1.73-.26-2.74t-.74-1.44q-.49-.44-1.17-.44t-1.17.44q-.49.43-.75 1.44t-.26 2.74q0 1.76.26 2.79t.75 1.47q.49.43 1.17.43m16.43 2.66h-10.14q.66-.83 1.27-1.61l1.19-1.52 1.11-1.44q.53-.7 1.04-1.36.95-1.24 1.53-2 .58-.77.85-1.33.27-.57.27-1.18 0-.71-.4-1.23-.41-.53-1.47-.52-.66 0-1.15.31t-.69.96q-.2.64 0 1.64h-2.88q-.26-1.97.3-3.19.55-1.23 1.72-1.8 1.16-.57 2.73-.57 1.58 0 2.64.51t1.59 1.42q.53.9.53 2.09 0 1.15-.37 2.09-.37.93-.91 1.71-.55.77-1.07 1.47-.42.55-.84 1.11l-.84 1.1-.84 1.1q.33-.34.75-.44.42-.11 1.17-.11h2.91Zm11.38 0h-2.83v-2.6h-7.2l5.12-11.94h4.94l-.05.04.01 9.36h1.86v2.54h-1.85Zm-5.51-6.25-.68 1.52q.2-.23.44-.32.23-.09.62-.09h3.2q-.55 0-.72-.36-.18-.36-.18-.99v-2.82l.05-3.33-1.42 3.43Zm59.043 305.053c-.06-52.715-42.784-95.432-95.498-95.478-52.708.06-95.42 42.77-95.478 95.477v40.09c0 19.497 15.867 35.343 35.364 35.343a14.77 14.77 0 0 1 14.749 14.728v20.045a5.275 5.275 0 0 0 5.275 5.296h80.18a5.275 5.275 0 0 0 5.296-5.296v-20.045a14.77 14.77 0 0 1 14.749-14.728c19.496 0 35.363-15.867 35.363-35.385Zm-35.363 64.84a25.32 25.32 0 0 0-25.342 25.34v14.729h-9.452v-14.707a5.296 5.296 0 0 0-10.593 0v14.728h-9.431v-14.728a5.307 5.307 0 1 0-10.614 0v14.728h-9.431v-14.728a5.307 5.307 0 1 0-10.614 0v14.728h-9.431v-14.728c0-13.968-11.373-25.341-25.32-25.341a24.77 24.77 0 0 1-24.793-24.771v-40.09c.06-46.853 38.033-84.818 84.886-84.865 46.863.036 84.847 38.001 84.906 84.864v40.09c0 13.652-11.1 24.75-24.75 24.75"/><path fill="#fff" d="M780.683 402.75a5.296 5.296 0 0 0-10.065 0l-10.023 30.067a5.317 5.317 0 0 0 5.043 6.963h20.045a5.317 5.317 0 0 0 5.022-6.963Zm-48.087-39.69c-13.986.036-25.31 11.377-25.32 25.362 0 13.969 11.35 25.32 25.32 25.32 13.592-.554 24.328-11.735 24.328-25.34s-10.736-24.787-24.33-25.342m86.153 0c-13.994.024-25.33 11.369-25.341 25.362.012 13.994 11.362 25.329 25.356 25.32 13.99-.008 25.33-11.356 25.326-25.347-.004-13.993-11.348-25.335-25.341-25.335"/><g stroke="#fff" stroke-width="2" transform="matrix(.85 0 0 .85 400.64 220.55)"><path d="M292.906-141.176h301.096"/>undefined
        undefined</g><g stroke="#fff" stroke-width="2" transform="matrix(.85 0 0 .85 403.45 356.82)"><path d="M292.906-141.176h301.096"/>undefined
        undefined</g></g><path fill="transparent" stroke="transparent" d="M539.5 0h421v560h-421z"/></g></svg>